<svg width="1440" height="181" viewBox="0 0 1440 181" fill="none" xmlns="http://www.w3.org/2000/svg">
<path fill-rule="evenodd" clip-rule="evenodd" d="M0 0L59.625 6.80058C120.375 13.6012 239.625 27.2023 360 50.2197C480.375 73.7601 599.625 107.24 720 114.04C840.375 120.841 959.625 100.439 1080 94.1619C1200.38 87.3613 1319.62 94.1619 1380.38 97.3006L1440 100.439V181H1380.38C1319.62 181 1200.38 181 1080 181C959.625 181 840.375 181 720 181C599.625 181 480.375 181 360 181C239.625 181 120.375 181 59.625 181H0V0Z" fill="#20DF7F" fill-opacity="0.09"/>
<path fill-rule="evenodd" clip-rule="evenodd" d="M0 72.4L48 86.88C96 101.36 192 130.32 288 123.08C384 115.84 480 72.4 576 43.44C672 14.48 768 0 864 0C960 0 1056 14.48 1152 39.82C1248 65.16 1344 101.36 1392 119.46L1440 137.56V181H1392C1344 181 1248 181 1152 181C1056 181 960 181 864 181C768 181 672 181 576 181C480 181 384 181 288 181C192 181 96 181 48 181H0V72.4Z" fill="#E5E5E5" fill-opacity="0.13"/>
</svg>
