<svg width="74" height="67" viewBox="0 0 74 67" fill="none" xmlns="http://www.w3.org/2000/svg">
<mask id="mask0_419_70" style="mask-type:alpha" maskUnits="userSpaceOnUse" x="9" y="8" width="56" height="51">
<path d="M9.7085 16.5862C9.7085 12.8149 9.7085 10.9293 10.8801 9.75775C12.0516 8.58618 13.9373 8.58618 17.7085 8.58618H56.5859C60.3571 8.58618 62.2427 8.58618 63.4143 9.75775C64.5859 10.9293 64.5859 12.8149 64.5859 16.5862V50.2413C64.5859 54.0126 64.5859 55.8982 63.4143 57.0698C62.2427 58.2414 60.3571 58.2414 56.5859 58.2414H17.7085C13.9373 58.2414 12.0516 58.2414 10.8801 57.0698C9.7085 55.8982 9.7085 54.0126 9.7085 50.2414V16.5862Z" fill="black"/>
</mask>
<g mask="url(#mask0_419_70)">
<path d="M41.3656 42.5779L13.6791 15.0209C13.3479 14.6912 13.1822 14.5263 12.9903 14.4066C12.8018 14.289 12.5949 14.2036 12.3783 14.1539C12.1578 14.1034 11.9241 14.1034 11.4567 14.1034C8.84544 14.1034 7.53981 14.1034 6.62396 13.5859C5.73135 13.0815 5.06649 12.2537 4.76665 11.2732C4.459 10.2673 4.74079 8.99242 5.30436 6.44271L6.79756 -0.312837C7.46227 -3.32011 7.79463 -4.82374 8.89193 -5.70499C9.98924 -6.58624 11.5292 -6.58624 14.609 -6.58624H60.9291C64.7992 -6.58624 66.7342 -6.58624 67.9123 -5.37432C69.0904 -4.1624 69.0356 -2.22815 68.9259 1.64037L67.6347 47.2069L53.0223 36.1887C51.3099 34.8975 50.4537 34.2519 49.5613 34.442C48.6689 34.6322 48.1503 35.5707 47.1131 37.4478L44.527 42.1277C43.9389 43.192 43.6449 43.7241 43.1516 43.7943C42.6583 43.8646 42.2274 43.4357 41.3656 42.5779Z" stroke="#004D40" stroke-width="2" stroke-linecap="round"/>
</g>
<path d="M9.7085 36.1724V16.5862C9.7085 12.8149 9.7085 10.9293 10.8801 9.75775C12.0516 8.58618 13.9373 8.58618 17.7085 8.58618H56.5859C60.3571 8.58618 62.2427 8.58618 63.4143 9.75775C64.5859 10.9293 64.5859 12.8149 64.5859 16.5862V50.2413C64.5859 54.0126 64.5859 55.8982 63.4143 57.0698C62.2427 58.2414 60.3571 58.2414 56.5859 58.2414H37.1472" stroke="#004D40" stroke-width="2"/>
<ellipse cx="50.8666" cy="21" rx="4.57311" ry="4.13793" fill="#004D40"/>
<path d="M18.5396 41.4043L18.5396 57.956" stroke="#004D40" stroke-width="2" stroke-linecap="square" stroke-linejoin="round"/>
<path d="M9.39331 49.6801H27.6858" stroke="#004D40" stroke-width="2" stroke-linecap="square" stroke-linejoin="round"/>
</svg>
