<svg width="20" height="18" viewBox="0 0 20 18" fill="none" xmlns="http://www.w3.org/2000/svg">
<path d="M19.0136 7.24262C18.4186 6.25062 17.4086 4.88261 15.9876 3.71461L18.3486 1.35362C18.5436 1.15862 18.5436 0.841616 18.3486 0.646616C18.1536 0.451616 17.8366 0.451616 17.6416 0.646616L12.1096 6.17863L12.1076 6.17961L12.1066 6.18061L1.64061 16.6466C1.44561 16.8416 1.44561 17.1586 1.64061 17.3536C1.73861 17.4516 1.86661 17.4996 1.99461 17.4996C2.12261 17.4996 2.25062 17.4506 2.34862 17.3536L4.8036 14.8986C6.3926 15.9566 8.1356 16.5006 9.9976 16.5006C14.8216 16.5006 17.7166 12.9036 19.0146 10.7576C19.6626 9.67361 19.6626 8.32662 19.0136 7.24262ZM12.9956 9.00062C12.9956 10.6546 11.6496 12.0006 9.99559 12.0006C9.36159 12.0006 8.7646 11.7996 8.2646 11.4386L12.4336 7.26963C12.7936 7.76963 12.9956 8.36662 12.9956 9.00062ZM18.1576 10.2416C16.9696 12.2056 14.3306 15.5006 9.9976 15.5006C8.4066 15.5006 6.9146 15.0346 5.5396 14.1636L7.5576 12.1456C8.2516 12.6906 9.09359 13.0006 9.99559 13.0006C12.2016 13.0006 13.9956 11.2066 13.9956 9.00062C13.9956 8.09862 13.6846 7.25663 13.1406 6.56263L15.2806 4.42262C16.6346 5.51362 17.5926 6.81663 18.1566 7.75663C18.6146 8.52363 18.6146 9.47662 18.1576 10.2416ZM2.31761 12.6226C1.82761 12.0426 1.37861 11.4146 0.981612 10.7586C0.333612 9.67362 0.333605 8.32763 0.980605 7.24363C2.2786 5.09763 5.1736 1.49961 9.9976 1.49961C10.9286 1.49961 11.8296 1.63462 12.7506 1.91062C13.0146 1.99062 13.1646 2.26861 13.0856 2.53361C13.0056 2.79761 12.7316 2.94763 12.4626 2.86863C11.6356 2.61963 10.8296 2.49961 9.9976 2.49961C5.6646 2.49961 3.0256 5.79462 1.8376 7.75862C1.3806 8.52362 1.38061 9.47663 1.83861 10.2436C2.20661 10.8536 2.62561 11.4376 3.08061 11.9766C3.25861 12.1876 3.23259 12.5036 3.02159 12.6816C2.92759 12.7616 2.8136 12.7996 2.6996 12.7996C2.5576 12.8006 2.41661 12.7406 2.31761 12.6226ZM9.36961 5.05561C9.64161 5.01361 9.89759 5.20161 9.93959 5.47361C9.98159 5.74661 9.79459 6.00162 9.52159 6.04362C8.25559 6.23862 7.2346 7.25961 7.0396 8.52561C7.0016 8.77261 6.78861 8.94963 6.54561 8.94963C6.52061 8.94963 6.49461 8.94761 6.46861 8.94361C6.19561 8.90161 6.00861 8.64661 6.05061 8.37361C6.31161 6.68161 7.67661 5.31761 9.36961 5.05561Z" fill="#000"/>
</svg>
