<svg width="20" height="16" viewBox="0 0 20 16" fill="none" xmlns="http://www.w3.org/2000/svg">
<path d="M19.0129 6.24451C17.7249 4.09851 14.8409 0.499512 9.99786 0.499512C5.15586 0.499512 2.27084 4.09851 0.982844 6.24451C0.333844 7.32751 0.333844 8.67252 0.982844 9.75552C2.27184 11.9015 5.15586 15.5005 9.99786 15.5005C14.8409 15.5005 17.7249 11.9015 19.0129 9.75552C19.6629 8.67252 19.6629 7.32751 19.0129 6.24451ZM18.1558 9.24051C16.9768 11.2045 14.3489 14.4995 9.99786 14.4995C5.64786 14.4995 3.01987 11.2045 1.83987 9.24051C1.38087 8.47551 1.38087 7.52452 1.83987 6.75952C3.01987 4.79552 5.64786 1.50052 9.99786 1.50052C14.3489 1.50052 16.9768 4.79552 18.1558 6.75952C18.6148 7.52452 18.6148 8.47551 18.1558 9.24051ZM9.99786 4.00052C7.79186 4.00052 5.99786 5.79452 5.99786 8.00052C5.99786 10.2065 7.79186 12.0005 9.99786 12.0005C12.2039 12.0005 13.9979 10.2065 13.9979 8.00052C13.9979 5.79452 12.2039 4.00052 9.99786 4.00052ZM9.99786 11.0005C8.34386 11.0005 6.99786 9.65452 6.99786 8.00052C6.99786 6.34652 8.34386 5.00052 9.99786 5.00052C11.6519 5.00052 12.9979 6.34652 12.9979 8.00052C12.9979 9.65452 11.6519 11.0005 9.99786 11.0005Z" fill="#000"/>
</svg>
