<svg width="46" height="37" viewBox="0 0 46 37" fill="none" xmlns="http://www.w3.org/2000/svg">
<path d="M43.9976 14.0678C40.984 9.04909 34.2282 0.625 22.8478 0.625C11.4696 0.625 4.71151 9.0468 1.69797 14.0678C0.100677 16.7308 0.100677 20.0376 1.69797 22.7029C4.7138 27.7216 11.4696 36.1458 22.8478 36.1458C34.2282 36.1458 40.984 27.7239 43.9976 22.7029C45.5972 20.0399 45.5972 16.733 43.9976 14.0678ZM41.0505 20.936C38.4105 25.3337 32.5346 32.7106 22.8478 32.7106C13.1609 32.7106 7.28508 25.3337 4.64508 20.936C3.7032 19.3639 3.7032 17.4091 4.64508 15.8393C7.28508 11.4416 13.1632 4.06474 22.8478 4.06474C32.5369 4.06474 38.4128 11.4416 41.0505 15.8393C41.9946 17.4091 41.9946 19.3639 41.0505 20.936ZM22.8478 8.64807C17.4784 8.64807 13.1082 13.0183 13.1082 18.3877C13.1082 23.757 17.4784 28.1272 22.8478 28.1272C28.2171 28.1272 32.5874 23.757 32.5874 18.3877C32.5874 13.0183 28.2171 8.64807 22.8478 8.64807ZM22.8478 24.6897C19.3713 24.6897 16.5457 21.8641 16.5457 18.3877C16.5457 14.9112 19.3713 12.0856 22.8478 12.0856C26.3242 12.0856 29.1499 14.9112 29.1499 18.3877C29.1499 21.8641 26.3242 24.6897 22.8478 24.6897Z" fill="#41416E"/>
</svg>
