<svg width="20" height="20" viewBox="0 0 20 20" fill="none" xmlns="http://www.w3.org/2000/svg">
<path d="M17.821 5.50695L12.821 1.48548C11.186 0.171006 8.81401 0.172007 7.17801 1.48548L2.17801 5.50695C1.11201 6.36426 0.5 7.64069 0.5 9.00919V15.0034C0.5 17.4832 2.519 19.5 5 19.5H7.5V15.0034C7.5 13.6269 8.622 12.5065 10 12.5065C11.378 12.5065 12.5 13.6269 12.5 15.0034V19.5H15C17.481 19.5 19.5 17.4832 19.5 15.0034V9.00919C19.5 7.64069 18.888 6.36426 17.821 5.50695ZM18.5 15.0034C18.5 16.931 16.93 18.4996 15 18.4996H13.5V15.0034C13.5 13.0747 11.93 11.5061 10 11.5061C8.07 11.5061 6.5 13.0747 6.5 15.0034V18.4996H5C3.07 18.4996 1.5 16.931 1.5 15.0034V9.00919C1.5 7.9458 1.97601 6.95346 2.80501 6.28622L7.80501 2.26478C9.07701 1.24241 10.924 1.24342 12.195 2.26478L17.195 6.28622C18.025 6.95346 18.5 7.9458 18.5 9.00919V15.0034Z" fill="#000"/>
</svg>
